<svg width="1920" height="701" viewBox="0 0 1920 701" fill="none" xmlns="http://www.w3.org/2000/svg">
<path fill-rule="evenodd" clip-rule="evenodd" d="M1930 700.391L1883.29 652.092C1838.18 603.793 1746.37 507.196 1654.55 474.996C1561.12 442.797 1469.3 474.996 1377.48 539.395C1285.67 603.793 1193.85 644.042 1102.03 652.092C1010.21 660.142 916.786 635.993 824.968 571.594C733.151 507.196 641.333 458.897 549.516 483.046C457.698 507.196 365.881 603.793 272.453 627.943C180.635 652.092 88.8176 603.793 43.7142 579.644L-3 555.494V314H43.7142C88.8176 314 180.635 314 272.453 314C365.881 314 457.698 314 549.516 314C641.333 314 733.151 314 824.968 314C916.786 314 1010.21 314 1102.03 314C1193.85 314 1285.67 314 1377.48 314C1469.3 314 1561.12 314 1654.55 314C1746.37 314 1838.18 314 1883.29 314H1930V700.391Z" fill="white"/>
<path fill-rule="evenodd" clip-rule="evenodd" d="M-10 0L36.7142 48.2989C81.8175 96.5978 173.635 193.196 265.452 225.395C358.881 257.594 450.698 225.395 542.516 160.996C634.333 96.5978 726.151 56.3487 817.968 48.2989C909.786 40.2491 1003.21 64.3985 1095.03 128.797C1186.85 193.196 1278.67 241.494 1370.48 217.345C1462.3 193.196 1554.12 96.5978 1647.55 72.4483C1739.36 48.2989 1831.18 96.5978 1876.29 120.747L1923 144.897V386.391H1876.29C1831.18 386.391 1739.36 386.391 1647.55 386.391C1554.12 386.391 1462.3 386.391 1370.48 386.391C1278.67 386.391 1186.85 386.391 1095.03 386.391C1003.21 386.391 909.786 386.391 817.968 386.391C726.151 386.391 634.333 386.391 542.516 386.391C450.698 386.391 358.881 386.391 265.452 386.391C173.635 386.391 81.8175 386.391 36.7142 386.391H-10V0Z" fill="white"/>
</svg>
