<svg width="1920" height="387" viewBox="0 0 1920 387" fill="none" xmlns="http://www.w3.org/2000/svg">
<path fill-rule="evenodd" clip-rule="evenodd" d="M1930 386.391L1883.29 338.092C1838.18 289.793 1746.37 193.196 1654.55 160.996C1561.12 128.797 1469.3 160.996 1377.48 225.395C1285.67 289.793 1193.85 330.042 1102.03 338.092C1010.21 346.142 916.786 321.993 824.968 257.594C733.151 193.196 641.333 144.897 549.516 169.046C457.698 193.196 365.881 289.793 272.453 313.943C180.635 338.092 88.8176 289.793 43.7142 265.644L-3 241.494V3.05176e-05H43.7142C88.8176 3.05176e-05 180.635 3.05176e-05 272.453 3.05176e-05C365.881 3.05176e-05 457.698 3.05176e-05 549.516 3.05176e-05C641.333 3.05176e-05 733.151 3.05176e-05 824.968 3.05176e-05C916.786 3.05176e-05 1010.21 3.05176e-05 1102.03 3.05176e-05C1193.85 3.05176e-05 1285.67 3.05176e-05 1377.48 3.05176e-05C1469.3 3.05176e-05 1561.12 3.05176e-05 1654.55 3.05176e-05C1746.37 3.05176e-05 1838.18 3.05176e-05 1883.29 3.05176e-05H1930V386.391Z" fill="white"/>
</svg>
