<svg width="390" height="484" viewBox="0 0 390 484" fill="none" xmlns="http://www.w3.org/2000/svg">
<path fill-rule="evenodd" clip-rule="evenodd" d="M-152 16.0848H-135.253C-119.083 16.0848 -86.165 16.0848 -53.2475 14.1491C-19.7525 12.2133 13.165 8.34185 46.0825 4.47039C79 0.598918 111.917 -3.27255 144.835 4.47039C177.753 12.2133 211.247 31.5707 244.165 33.5064C277.082 35.4421 310 19.9563 342.917 21.892C375.835 23.8277 408.753 43.1851 442.247 58.6709C475.165 74.1568 508.082 85.7712 524.253 91.5784L541 97.3856V109H524.253C508.082 109 475.165 109 442.247 109C408.753 109 375.835 109 342.917 109C310 109 277.082 109 244.165 109C211.247 109 177.753 109 144.835 109C111.917 109 79 109 46.0825 109C13.165 109 -19.7525 109 -53.2475 109C-86.165 109 -119.083 109 -135.253 109H-152V16.0848Z" fill="white"/>
<path fill-rule="evenodd" clip-rule="evenodd" d="M539 463.636H522.253C506.083 463.636 473.165 463.636 440.248 466.087C406.753 468.537 373.835 473.439 340.918 478.34C308 483.242 275.083 488.143 242.165 478.34C209.247 468.537 175.753 444.03 142.835 441.579C109.918 439.128 77 458.734 44.0825 456.284C11.165 453.833 -21.7525 429.325 -55.2475 409.719C-88.165 390.113 -121.082 375.409 -137.253 368.057L-154 360.704V346H-137.253C-121.082 346 -88.165 346 -55.2475 346C-21.7525 346 11.165 346 44.0825 346C77 346 109.918 346 142.835 346C175.753 346 209.247 346 242.165 346C275.083 346 308 346 340.918 346C373.835 346 406.753 346 440.248 346C473.165 346 506.083 346 522.253 346H539V463.636Z" fill="white"/>
<rect y="108" width="390" height="238" fill="white"/>
</svg>
