<svg width="390" height="138" viewBox="0 0 390 138" fill="none" xmlns="http://www.w3.org/2000/svg">
<path fill-rule="evenodd" clip-rule="evenodd" d="M539 117.636H522.253C506.083 117.636 473.165 117.636 440.248 120.087C406.753 122.537 373.835 127.439 340.918 132.34C308 137.242 275.083 142.143 242.165 132.34C209.247 122.537 175.753 98.0298 142.835 95.5791C109.918 93.1283 77 112.734 44.0825 110.284C11.165 107.833 -21.7525 83.3253 -55.2475 63.7194C-88.165 44.1134 -121.082 29.4089 -137.253 22.0567L-154 14.7045V0H-137.253C-121.082 0 -88.165 0 -55.2475 0C-21.7525 0 11.165 0 44.0825 0C77 0 109.918 0 142.835 0C175.753 0 209.247 0 242.165 0C275.083 0 308 0 340.918 0C373.835 0 406.753 0 440.248 0C473.165 0 506.083 0 522.253 0H539V117.636Z" fill="white"/>
</svg>
