<svg width="1920" height="387" viewBox="0 0 1920 387" fill="none" xmlns="http://www.w3.org/2000/svg">
<path fill-rule="evenodd" clip-rule="evenodd" d="M-10 0L36.7142 48.2989C81.8175 96.5978 173.635 193.196 265.452 225.395C358.881 257.594 450.698 225.395 542.516 160.996C634.333 96.5978 726.151 56.3487 817.968 48.2989C909.786 40.2491 1003.21 64.3985 1095.03 128.797C1186.85 193.196 1278.67 241.494 1370.48 217.345C1462.3 193.196 1554.12 96.5978 1647.55 72.4483C1739.36 48.2989 1831.18 96.5978 1876.29 120.747L1923 144.897V386.391H1876.29C1831.18 386.391 1739.36 386.391 1647.55 386.391C1554.12 386.391 1462.3 386.391 1370.48 386.391C1278.67 386.391 1186.85 386.391 1095.03 386.391C1003.21 386.391 909.786 386.391 817.968 386.391C726.151 386.391 634.333 386.391 542.516 386.391C450.698 386.391 358.881 386.391 265.452 386.391C173.635 386.391 81.8175 386.391 36.7142 386.391H-10V0Z" fill="white"/>
</svg>
